<mxfile host="app.diagrams.net" agent="Mozilla/5.0 (Windows NT 10.0; Win64; x64) AppleWebKit/537.36 (KHTML, like Gecko) Chrome/130.0.0.0 Safari/537.36 Edg/130.0.0.0" version="27.1.4">
  <diagram name="第 1 页" id="a25goBHYSJ6G8yLVW9Gv">
    <mxGraphModel dx="1160" dy="747" grid="1" gridSize="10" guides="1" tooltips="1" connect="1" arrows="1" fold="1" page="1" pageScale="1" pageWidth="827" pageHeight="1169" math="0" shadow="0">
      <root>
        <mxCell id="0" />
        <mxCell id="1" parent="0" />
        <mxCell id="xWq6DRBjydXVrkZtAr-p-1" value="" style="rounded=1;whiteSpace=wrap;html=1;fillColor=#dae8fc;strokeColor=#6c8ebf;dashed=1;dashPattern=8 8;glass=0;rotation=0;opacity=60;" vertex="1" parent="1">
          <mxGeometry x="114" y="95" width="600" height="490" as="geometry" />
        </mxCell>
        <mxCell id="xWq6DRBjydXVrkZtAr-p-2" value="" style="rounded=1;whiteSpace=wrap;html=1;fillColor=#d5e8d4;strokeColor=#82b366;dashed=1;dashPattern=8 8;" vertex="1" parent="1">
          <mxGeometry x="154" y="325" width="160" height="180" as="geometry" />
        </mxCell>
        <mxCell id="xWq6DRBjydXVrkZtAr-p-3" style="edgeStyle=orthogonalEdgeStyle;rounded=0;orthogonalLoop=1;jettySize=auto;html=1;exitX=1;exitY=0.5;exitDx=0;exitDy=0;entryX=0.5;entryY=1;entryDx=0;entryDy=0;strokeWidth=3;strokeColor=#FF9999;endArrow=blockThin;endFill=1;" edge="1" parent="1" source="xWq6DRBjydXVrkZtAr-p-4" target="xWq6DRBjydXVrkZtAr-p-10">
          <mxGeometry relative="1" as="geometry">
            <Array as="points">
              <mxPoint x="694" y="170" />
              <mxPoint x="694" y="525" />
              <mxPoint x="434" y="525" />
            </Array>
          </mxGeometry>
        </mxCell>
        <mxCell id="xWq6DRBjydXVrkZtAr-p-4" value="&lt;font face=&quot;Times New Roman&quot; style=&quot;font-size: 17px;&quot;&gt;&lt;b&gt;&amp;nbsp; &amp;nbsp;&lt;font style=&quot;&quot;&gt;Power module DC7.4V&lt;/font&gt;&lt;/b&gt;&lt;/font&gt;" style="rounded=1;whiteSpace=wrap;html=1;align=left;fillColor=#e1d5e7;strokeColor=#9673a6;" vertex="1" parent="1">
          <mxGeometry x="154" y="125" width="520" height="90" as="geometry" />
        </mxCell>
        <mxCell id="xWq6DRBjydXVrkZtAr-p-5" value="&lt;b style=&quot;&quot;&gt;&lt;font style=&quot;font-size: 15px;&quot; face=&quot;Times New Roman&quot;&gt;Voltage regulation and boosting&lt;/font&gt;&lt;/b&gt;" style="rounded=1;whiteSpace=wrap;html=1;fillColor=#f8cecc;strokeColor=#b85450;" vertex="1" parent="1">
          <mxGeometry x="458" y="140" width="101" height="60" as="geometry" />
        </mxCell>
        <mxCell id="xWq6DRBjydXVrkZtAr-p-6" value="&lt;b style=&quot;&quot;&gt;&lt;font style=&quot;font-size: 15px;&quot; face=&quot;Times New Roman&quot;&gt;Voltage regulation and step-down&lt;/font&gt;&lt;/b&gt;" style="rounded=1;whiteSpace=wrap;html=1;fillColor=#b1ddf0;strokeColor=#10739e;align=center;" vertex="1" parent="1">
          <mxGeometry x="357" y="140" width="101" height="60" as="geometry" />
        </mxCell>
        <mxCell id="xWq6DRBjydXVrkZtAr-p-7" style="edgeStyle=orthogonalEdgeStyle;rounded=0;orthogonalLoop=1;jettySize=auto;html=1;exitX=0;exitY=0.5;exitDx=0;exitDy=0;entryX=0;entryY=0.5;entryDx=0;entryDy=0;strokeWidth=3;strokeColor=#FF66FF;" edge="1" parent="1" source="xWq6DRBjydXVrkZtAr-p-8" target="xWq6DRBjydXVrkZtAr-p-12">
          <mxGeometry relative="1" as="geometry" />
        </mxCell>
        <mxCell id="xWq6DRBjydXVrkZtAr-p-8" value="&lt;font style=&quot;font-size: 15px;&quot;&gt;&lt;b style=&quot;&quot;&gt;&lt;font face=&quot;Times New Roman&quot;&gt;STM32F103C8T6&lt;/font&gt;&lt;font face=&quot;宋体&quot;&gt;&amp;nbsp;&lt;/font&gt;&lt;font face=&quot;Times New Roman&quot;&gt;MCU&lt;/font&gt;&lt;/b&gt;&lt;/font&gt;" style="rounded=1;whiteSpace=wrap;html=1;fillColor=#f5f5f5;fontColor=#333333;strokeColor=#666666;" vertex="1" parent="1">
          <mxGeometry x="154" y="245" width="440" height="40" as="geometry" />
        </mxCell>
        <mxCell id="xWq6DRBjydXVrkZtAr-p-9" value="&lt;font face=&quot;Times New Roman&quot; style=&quot;font-size: 17px;&quot;&gt;&lt;b style=&quot;&quot;&gt;Sensor layer&lt;/b&gt;&lt;/font&gt;" style="text;html=1;align=center;verticalAlign=middle;whiteSpace=wrap;rounded=0;" vertex="1" parent="1">
          <mxGeometry x="188" y="335" width="92" height="30" as="geometry" />
        </mxCell>
        <mxCell id="xWq6DRBjydXVrkZtAr-p-10" value="" style="rounded=1;whiteSpace=wrap;html=1;fillColor=#ffe6cc;strokeColor=#d79b00;dashed=1;dashPattern=8 8;" vertex="1" parent="1">
          <mxGeometry x="354" y="325" width="160" height="180" as="geometry" />
        </mxCell>
        <mxCell id="xWq6DRBjydXVrkZtAr-p-12" value="&lt;b style=&quot;color: rgb(51, 51, 51); font-size: 15px;&quot;&gt;&lt;font face=&quot;Times New Roman&quot;&gt;Download Port&lt;/font&gt;&lt;/b&gt;" style="rounded=1;whiteSpace=wrap;html=1;fillColor=#fff2cc;strokeColor=#d6b656;" vertex="1" parent="1">
          <mxGeometry x="154" y="535" width="280" height="30" as="geometry" />
        </mxCell>
        <mxCell id="xWq6DRBjydXVrkZtAr-p-13" value="" style="rounded=1;whiteSpace=wrap;html=1;fillColor=#bac8d3;strokeColor=#23445d;dashed=1;dashPattern=8 8;" vertex="1" parent="1">
          <mxGeometry x="624" y="325" width="50" height="180" as="geometry" />
        </mxCell>
        <mxCell id="xWq6DRBjydXVrkZtAr-p-14" value="&lt;font face=&quot;Times New Roman&quot; style=&quot;font-size: 15px;&quot;&gt;&lt;b&gt;Camera&lt;/b&gt;&lt;/font&gt;&lt;div&gt;&lt;font face=&quot;Times New Roman&quot; style=&quot;font-size: 15px;&quot;&gt;&lt;b&gt;module&lt;/b&gt;&lt;/font&gt;&lt;/div&gt;" style="text;html=1;align=center;verticalAlign=middle;whiteSpace=wrap;rounded=0;" vertex="1" parent="1">
          <mxGeometry x="634" y="355" width="30" height="120" as="geometry" />
        </mxCell>
        <mxCell id="xWq6DRBjydXVrkZtAr-p-15" value="" style="rounded=1;whiteSpace=wrap;html=1;fillColor=#b0e3e6;strokeColor=#0e8088;dashed=1;dashPattern=8 8;" vertex="1" parent="1">
          <mxGeometry x="530" y="325" width="70" height="180" as="geometry" />
        </mxCell>
        <mxCell id="xWq6DRBjydXVrkZtAr-p-16" value="&lt;font face=&quot;Times New Roman&quot; style=&quot;font-size: 15px;&quot;&gt;&lt;b style=&quot;&quot;&gt;Bluetootj&lt;/b&gt;&lt;/font&gt;&lt;div&gt;&lt;font face=&quot;Times New Roman&quot; style=&quot;font-size: 15px;&quot;&gt;&lt;b&gt;debugging&lt;/b&gt;&lt;/font&gt;&lt;/div&gt;&lt;div&gt;&lt;font face=&quot;Times New Roman&quot; style=&quot;font-size: 15px;&quot;&gt;&lt;b style=&quot;&quot;&gt;module&lt;/b&gt;&lt;/font&gt;&lt;/div&gt;" style="text;html=1;align=center;verticalAlign=middle;whiteSpace=wrap;rounded=0;" vertex="1" parent="1">
          <mxGeometry x="553" y="345" width="24" height="120" as="geometry" />
        </mxCell>
        <mxCell id="xWq6DRBjydXVrkZtAr-p-17" value="&lt;b&gt;&lt;font face=&quot;Times New Roman&quot;&gt;HC-06&lt;/font&gt;&lt;/b&gt;" style="text;html=1;align=center;verticalAlign=middle;whiteSpace=wrap;rounded=0;" vertex="1" parent="1">
          <mxGeometry x="539" y="465" width="60" height="30" as="geometry" />
        </mxCell>
        <mxCell id="xWq6DRBjydXVrkZtAr-p-18" value="&lt;font face=&quot;Times New Roman&quot;&gt;3.3V&lt;/font&gt;" style="text;html=1;align=center;verticalAlign=middle;whiteSpace=wrap;rounded=0;" vertex="1" parent="1">
          <mxGeometry x="398" y="205" width="60" height="30" as="geometry" />
        </mxCell>
        <mxCell id="xWq6DRBjydXVrkZtAr-p-19" value="" style="endArrow=blockThin;html=1;rounded=0;exitX=0.5;exitY=1;exitDx=0;exitDy=0;endFill=1;strokeWidth=3;fillColor=#ffff88;strokeColor=#FF9999;entryX=0.576;entryY=0;entryDx=0;entryDy=0;entryPerimeter=0;" edge="1" parent="1" source="xWq6DRBjydXVrkZtAr-p-6" target="xWq6DRBjydXVrkZtAr-p-8">
          <mxGeometry width="50" height="50" relative="1" as="geometry">
            <mxPoint x="84" y="465" as="sourcePoint" />
            <mxPoint x="503" y="245" as="targetPoint" />
          </mxGeometry>
        </mxCell>
        <mxCell id="xWq6DRBjydXVrkZtAr-p-20" value="" style="endArrow=blockThin;html=1;rounded=0;exitX=0.5;exitY=1;exitDx=0;exitDy=0;endFill=1;strokeWidth=3;fillColor=#fad9d5;strokeColor=#FF9999;entryX=0.322;entryY=0.013;entryDx=0;entryDy=0;entryPerimeter=0;" edge="1" parent="1" target="xWq6DRBjydXVrkZtAr-p-2">
          <mxGeometry width="50" height="50" relative="1" as="geometry">
            <mxPoint x="205" y="285" as="sourcePoint" />
            <mxPoint x="204" y="325" as="targetPoint" />
          </mxGeometry>
        </mxCell>
        <mxCell id="xWq6DRBjydXVrkZtAr-p-21" value="&lt;font face=&quot;Times New Roman&quot;&gt;3.3V&lt;/font&gt;" style="text;html=1;align=center;verticalAlign=middle;whiteSpace=wrap;rounded=0;" vertex="1" parent="1">
          <mxGeometry x="194" y="285" width="60" height="30" as="geometry" />
        </mxCell>
        <mxCell id="xWq6DRBjydXVrkZtAr-p-22" value="" style="endArrow=blockThin;html=1;rounded=0;exitX=0.807;exitY=0.032;exitDx=0;exitDy=0;endFill=1;strokeWidth=3;fillColor=#ffff88;strokeColor=#FF9999;entryX=0.5;entryY=1;entryDx=0;entryDy=0;exitPerimeter=0;" edge="1" parent="1" source="xWq6DRBjydXVrkZtAr-p-8" target="xWq6DRBjydXVrkZtAr-p-5">
          <mxGeometry width="50" height="50" relative="1" as="geometry">
            <mxPoint x="625" y="235" as="sourcePoint" />
            <mxPoint x="624" y="284" as="targetPoint" />
          </mxGeometry>
        </mxCell>
        <mxCell id="xWq6DRBjydXVrkZtAr-p-23" value="&lt;font face=&quot;Times New Roman&quot;&gt;3.3V&lt;/font&gt;" style="text;html=1;align=center;verticalAlign=middle;whiteSpace=wrap;rounded=0;" vertex="1" parent="1">
          <mxGeometry x="499" y="205" width="60" height="30" as="geometry" />
        </mxCell>
        <mxCell id="xWq6DRBjydXVrkZtAr-p-24" value="" style="endArrow=blockThin;html=1;rounded=0;endFill=1;strokeWidth=3;fillColor=#ffff88;strokeColor=#FF9999;entryX=1;entryY=0.5;entryDx=0;entryDy=0;" edge="1" parent="1" target="xWq6DRBjydXVrkZtAr-p-13">
          <mxGeometry width="50" height="50" relative="1" as="geometry">
            <mxPoint x="694" y="415" as="sourcePoint" />
            <mxPoint x="754" y="465" as="targetPoint" />
          </mxGeometry>
        </mxCell>
        <mxCell id="xWq6DRBjydXVrkZtAr-p-25" value="" style="endArrow=blockThin;html=1;rounded=0;exitX=1;exitY=0.5;exitDx=0;exitDy=0;endFill=1;strokeWidth=3;fillColor=#ffff88;strokeColor=#FF9999;entryX=0.554;entryY=-0.001;entryDx=0;entryDy=0;entryPerimeter=0;" edge="1" parent="1" source="xWq6DRBjydXVrkZtAr-p-5" target="xWq6DRBjydXVrkZtAr-p-15">
          <mxGeometry width="50" height="50" relative="1" as="geometry">
            <mxPoint x="754" y="315" as="sourcePoint" />
            <mxPoint x="755" y="357" as="targetPoint" />
            <Array as="points">
              <mxPoint x="634" y="170" />
              <mxPoint x="634" y="295" />
              <mxPoint x="569" y="295" />
            </Array>
          </mxGeometry>
        </mxCell>
        <mxCell id="xWq6DRBjydXVrkZtAr-p-26" value="" style="rounded=1;whiteSpace=wrap;html=1;fillColor=#d0cee2;strokeColor=#56517e;dashed=1;dashPattern=12 12;opacity=80;" vertex="1" parent="1">
          <mxGeometry x="160" y="365" width="350" height="65" as="geometry" />
        </mxCell>
        <mxCell id="xWq6DRBjydXVrkZtAr-p-27" value="&lt;font face=&quot;Times New Roman&quot;&gt;5V&lt;/font&gt;" style="text;html=1;align=center;verticalAlign=middle;whiteSpace=wrap;rounded=0;" vertex="1" parent="1">
          <mxGeometry x="624" y="235" width="60" height="30" as="geometry" />
        </mxCell>
        <mxCell id="xWq6DRBjydXVrkZtAr-p-28" value="&lt;font face=&quot;Times New Roman&quot;&gt;7.4V&lt;/font&gt;" style="text;html=1;align=center;verticalAlign=middle;whiteSpace=wrap;rounded=0;" vertex="1" parent="1">
          <mxGeometry x="544" y="525" width="60" height="30" as="geometry" />
        </mxCell>
        <mxCell id="xWq6DRBjydXVrkZtAr-p-29" value="" style="endArrow=blockThin;html=1;rounded=0;exitX=0.691;exitY=-0.001;exitDx=0;exitDy=0;endFill=1;strokeWidth=3;fillColor=#fad9d5;strokeColor=#67AB9F;entryX=0.25;entryY=1;entryDx=0;entryDy=0;exitPerimeter=0;" edge="1" parent="1" source="xWq6DRBjydXVrkZtAr-p-2" target="xWq6DRBjydXVrkZtAr-p-8">
          <mxGeometry width="50" height="50" relative="1" as="geometry">
            <mxPoint x="324" y="305" as="sourcePoint" />
            <mxPoint x="325" y="347" as="targetPoint" />
          </mxGeometry>
        </mxCell>
        <mxCell id="xWq6DRBjydXVrkZtAr-p-30" value="" style="endArrow=blockThin;html=1;rounded=0;exitX=0.636;exitY=1.041;exitDx=0;exitDy=0;endFill=1;strokeWidth=3;fillColor=#fad9d5;strokeColor=#67AB9F;entryX=0.5;entryY=0;entryDx=0;entryDy=0;exitPerimeter=0;" edge="1" parent="1" source="xWq6DRBjydXVrkZtAr-p-8" target="xWq6DRBjydXVrkZtAr-p-10">
          <mxGeometry width="50" height="50" relative="1" as="geometry">
            <mxPoint x="415" y="335" as="sourcePoint" />
            <mxPoint x="414" y="295" as="targetPoint" />
          </mxGeometry>
        </mxCell>
        <mxCell id="xWq6DRBjydXVrkZtAr-p-31" value="&lt;font face=&quot;Times New Roman&quot;&gt;IIC&lt;/font&gt;" style="text;html=1;align=center;verticalAlign=middle;whiteSpace=wrap;rounded=0;" vertex="1" parent="1">
          <mxGeometry x="254" y="285" width="60" height="30" as="geometry" />
        </mxCell>
        <mxCell id="xWq6DRBjydXVrkZtAr-p-32" value="&lt;font face=&quot;Times New Roman&quot;&gt;PWM&lt;/font&gt;" style="text;html=1;align=center;verticalAlign=middle;whiteSpace=wrap;rounded=0;" vertex="1" parent="1">
          <mxGeometry x="424" y="285" width="60" height="30" as="geometry" />
        </mxCell>
        <mxCell id="xWq6DRBjydXVrkZtAr-p-33" value="&lt;span style=&quot;font-size: 15px;&quot;&gt;&lt;b style=&quot;&quot;&gt;&lt;font face=&quot;Times New Roman&quot;&gt;Pressure sensors&lt;/font&gt;&lt;/b&gt;&lt;/span&gt;&lt;br&gt;&lt;div&gt;&lt;font style=&quot;font-size: 15px;&quot; face=&quot;Times New Roman&quot;&gt;&lt;b style=&quot;&quot;&gt;MS5837-30BBA&lt;/b&gt;&lt;/font&gt;&lt;/div&gt;" style="rounded=0;whiteSpace=wrap;html=1;fillColor=#f5f5f5;fontColor=#333333;strokeColor=#666666;" vertex="1" parent="1">
          <mxGeometry x="170" y="375" width="140" height="40" as="geometry" />
        </mxCell>
        <mxCell id="xWq6DRBjydXVrkZtAr-p-34" value="" style="rounded=1;whiteSpace=wrap;html=1;fillColor=#ffff88;strokeColor=#36393d;dashed=1;dashPattern=12 12;opacity=40;" vertex="1" parent="1">
          <mxGeometry x="160" y="430" width="350" height="65" as="geometry" />
        </mxCell>
        <mxCell id="xWq6DRBjydXVrkZtAr-p-35" value="&lt;font style=&quot;font-size: 15px;&quot;&gt;&lt;b&gt;&lt;font face=&quot;Times New Roman&quot; style=&quot;&quot;&gt;&lt;span style=&quot;cursor: pointer; color: rgb(17, 17, 17); text-align: start; white-space-collapse: preserve;&quot; class=&quot;&quot;&gt;Dorsal&lt;/span&gt;&lt;span style=&quot;cursor: pointer; color: rgb(17, 17, 17); text-align: start; white-space-collapse: preserve;&quot;&gt; &lt;/span&gt;&lt;span style=&quot;cursor: pointer; color: rgb(17, 17, 17); text-align: start; white-space-collapse: preserve;&quot; class=&quot;&quot;&gt;fin&lt;/span&gt;&lt;span style=&quot;cursor: pointer; color: rgb(17, 17, 17); text-align: start; white-space-collapse: preserve;&quot;&gt; &lt;/span&gt;&lt;span style=&quot;cursor: pointer; color: rgb(17, 17, 17); text-align: start; white-space-collapse: preserve;&quot; class=&quot;&quot;&gt;drive&lt;/span&gt;&lt;span style=&quot;cursor: pointer; color: rgb(17, 17, 17); text-align: start; white-space-collapse: preserve;&quot;&gt; &lt;/span&gt;&lt;span style=&quot;cursor: pointer; color: rgb(17, 17, 17); text-align: start; white-space-collapse: preserve;&quot; class=&quot;&quot;&gt;unit&lt;/span&gt;&lt;/font&gt;&lt;br&gt;&lt;/b&gt;&lt;/font&gt;&lt;div&gt;&lt;b style=&quot;&quot;&gt;&lt;font style=&quot;font-size: 15px;&quot; face=&quot;Times New Roman&quot;&gt;(TB6612FNG)&lt;/font&gt;&lt;/b&gt;&lt;/div&gt;" style="rounded=0;whiteSpace=wrap;html=1;fillColor=#f5f5f5;fontColor=#333333;strokeColor=#666666;" vertex="1" parent="1">
          <mxGeometry x="357" y="375" width="150" height="40" as="geometry" />
        </mxCell>
        <mxCell id="xWq6DRBjydXVrkZtAr-p-36" value="&lt;span style=&quot;font-size: 15px;&quot;&gt;&lt;b style=&quot;&quot;&gt;&lt;font face=&quot;Times New Roman&quot;&gt;Side fins drive the array (&lt;/font&gt;&lt;/b&gt;&lt;/span&gt;&lt;b style=&quot;background-color: transparent; color: light-dark(rgb(51, 51, 51), rgb(193, 193, 193)); font-size: 15px;&quot;&gt;&lt;font face=&quot;Times New Roman&quot;&gt;TB6612FNG)&lt;/font&gt;&lt;/b&gt;" style="rounded=0;whiteSpace=wrap;html=1;fillColor=#f5f5f5;fontColor=#333333;strokeColor=#666666;" vertex="1" parent="1">
          <mxGeometry x="357" y="435" width="150" height="40" as="geometry" />
        </mxCell>
        <mxCell id="xWq6DRBjydXVrkZtAr-p-37" value="&lt;font style=&quot;font-size: 15px;&quot;&gt;&lt;b style=&quot;&quot;&gt;&lt;font style=&quot;&quot; face=&quot;Times New Roman&quot;&gt;Motion sensor&lt;/font&gt;&lt;/b&gt;&lt;br&gt;&lt;/font&gt;&lt;div&gt;&lt;font style=&quot;font-size: 15px;&quot; face=&quot;Times New Roman&quot;&gt;&lt;b style=&quot;&quot;&gt;BMX160&lt;/b&gt;&lt;/font&gt;&lt;/div&gt;" style="rounded=0;whiteSpace=wrap;html=1;fillColor=#f5f5f5;fontColor=#333333;strokeColor=#666666;" vertex="1" parent="1">
          <mxGeometry x="170" y="435" width="140" height="40" as="geometry" />
        </mxCell>
        <mxCell id="xWq6DRBjydXVrkZtAr-p-38" value="&lt;font face=&quot;Times New Roman&quot;&gt;UART&lt;/font&gt;" style="text;html=1;align=center;verticalAlign=middle;whiteSpace=wrap;rounded=0;" vertex="1" parent="1">
          <mxGeometry x="504" y="285" width="60" height="30" as="geometry" />
        </mxCell>
        <mxCell id="xWq6DRBjydXVrkZtAr-p-39" value="" style="endArrow=blockThin;html=1;rounded=0;exitX=0.636;exitY=1.041;exitDx=0;exitDy=0;endFill=1;strokeWidth=3;fillColor=#fad9d5;strokeColor=#67AB9F;entryX=0.5;entryY=0;entryDx=0;entryDy=0;exitPerimeter=0;" edge="1" parent="1">
          <mxGeometry width="50" height="50" relative="1" as="geometry">
            <mxPoint x="554" y="287" as="sourcePoint" />
            <mxPoint x="554" y="325" as="targetPoint" />
          </mxGeometry>
        </mxCell>
        <mxCell id="xWq6DRBjydXVrkZtAr-p-48" value="&lt;font face=&quot;Times New Roman&quot; style=&quot;font-size: 17px;&quot;&gt;&lt;b style=&quot;&quot;&gt;Drive layer&lt;/b&gt;&lt;/font&gt;" style="text;html=1;align=center;verticalAlign=middle;whiteSpace=wrap;rounded=0;" vertex="1" parent="1">
          <mxGeometry x="388" y="335" width="92" height="30" as="geometry" />
        </mxCell>
      </root>
    </mxGraphModel>
  </diagram>
</mxfile>
